<svg width="64" height="64" viewBox="0 0 64 64" fill="none" xmlns="http://www.w3.org/2000/svg">
  <defs>
    <linearGradient id="iconGradient" x1="0%" y1="0%" x2="100%" y2="100%">
      <stop offset="0%" stop-color="#0ea5e9" />
      <stop offset="100%" stop-color="#0369a1" />
    </linearGradient>
  </defs>

  <!-- Background circle -->
  <circle cx="32" cy="32" r="32" fill="#0A0A0A"/>

  <!-- Outer ring -->
  <circle cx="32" cy="32" r="28" stroke="url(#iconGradient)" stroke-width="2" fill="none" opacity="0.4"/>

  <!-- Stylized RR -->
  <path d="M 18 22 L 18 42 L 21 42 L 21 33 L 25 33 L 29 42 L 33 42 L 28 32.5 Q 31 32 31 28 Q 31 22 26 22 Z M 21 25 L 26 25 Q 28 25 28 28 Q 28 30 26 30 L 21 30 Z" fill="url(#iconGradient)"/>

  <path d="M 35 22 L 35 42 L 38 42 L 38 33 L 42 33 L 46 42 L 50 42 L 45 32.5 Q 48 32 48 28 Q 48 22 43 22 Z M 38 25 L 43 25 Q 45 25 45 28 Q 45 30 43 30 L 38 30 Z" fill="url(#iconGradient)"/>

  <!-- Motion accent -->
  <path d="M 12 16 L 18 18" stroke="url(#iconGradient)" stroke-width="2" stroke-linecap="round" opacity="0.6"/>
</svg>
